<svg width="419" height="54" viewBox="0 0 419 54" fill="none" xmlns="http://www.w3.org/2000/svg">
<rect width="419" height="54" rx="13.2107" transform="matrix(-1 0 0 1 419 0)" fill="white" fill-opacity="0.06"/>
<ellipse cx="31.0546" cy="27.1952" rx="8.30535" ry="8.1469" stroke="white" stroke-width="1.69852" stroke-linecap="round" stroke-linejoin="round"/>
<path d="M37.2163 33.7625L39.6426 36.0995" stroke="white" stroke-width="1.69852" stroke-linecap="round" stroke-linejoin="round"/>
<path d="M63.6636 33.1284V21.2388H67.5787C68.1449 21.2388 68.6573 21.3548 69.1159 21.587C69.5802 21.8134 69.9482 22.1475 70.2199 22.5891C70.4974 23.025 70.6361 23.5629 70.6361 24.2027C70.6361 24.5877 70.5653 24.95 70.4238 25.2897C70.2822 25.6238 70.101 25.9069 69.8802 26.139C69.6594 26.3655 69.433 26.5042 69.2008 26.5551C69.5462 26.6514 69.8491 26.8099 70.1095 27.0307C70.37 27.2459 70.5879 27.5035 70.7635 27.8036C70.939 28.098 71.0692 28.4122 71.1541 28.7462C71.239 29.0803 71.2815 29.4143 71.2815 29.7484C71.2815 30.4334 71.1371 31.0307 70.8484 31.5403C70.5653 32.0442 70.186 32.4349 69.7104 32.7123C69.2348 32.9897 68.7054 33.1284 68.1223 33.1284H63.6636ZM64.5808 32.2877H68.0628C68.4988 32.2877 68.8951 32.1744 69.2518 31.9479C69.6085 31.7158 69.8916 31.4016 70.101 31.0053C70.3162 30.6033 70.4238 30.1503 70.4238 29.6465C70.4238 29.1935 70.3162 28.7689 70.101 28.3726C69.8916 27.9762 69.6085 27.6563 69.2518 27.4129C68.8951 27.1638 68.4988 27.0392 68.0628 27.0392H64.5808V32.2877ZM64.5808 26.2069H67.5193C68.1251 26.2069 68.6431 26.0343 69.0734 25.6889C69.5037 25.3379 69.7189 24.8396 69.7189 24.1942C69.7189 23.4752 69.5037 22.943 69.0734 22.5976C68.6431 22.2522 68.1251 22.0795 67.5193 22.0795H64.5808V26.2069ZM73.2258 29.8418V24.6358H74.143V29.6974C74.143 30.2013 74.2647 30.6599 74.5082 31.0732C74.7573 31.4865 75.0885 31.8149 75.5018 32.0583C75.9151 32.3018 76.3709 32.4235 76.8691 32.4235C77.373 32.4235 77.8288 32.3018 78.2364 32.0583C78.6497 31.8149 78.9781 31.4865 79.2216 31.0732C79.4707 30.6599 79.5952 30.2013 79.5952 29.6974V24.6358H80.5124V33.1284H79.5952V31.8121C79.2895 32.2763 78.8847 32.65 78.3808 32.9331C77.8826 33.2105 77.3334 33.3492 76.7332 33.3492C76.0878 33.3492 75.499 33.1935 74.9668 32.8821C74.4346 32.5651 74.0099 32.1404 73.6929 31.6082C73.3815 31.076 73.2258 30.4872 73.2258 29.8418ZM85.545 33.2898C85.075 33.2841 84.6136 33.202 84.1607 33.0435C83.7134 32.8793 83.3227 32.6613 82.9887 32.3896C82.6547 32.1178 82.4225 31.8092 82.2923 31.4639L83.0991 31.1157C83.1954 31.3704 83.3794 31.5997 83.6511 31.8036C83.9285 32.0074 84.2399 32.1688 84.5853 32.2877C84.9363 32.4009 85.2789 32.4575 85.6129 32.4575C85.9922 32.4575 86.3489 32.3924 86.683 32.2622C87.017 32.132 87.2888 31.9479 87.4983 31.7102C87.7078 31.4724 87.8125 31.1921 87.8125 30.8694C87.8125 30.5297 87.7021 30.2636 87.4813 30.0711C87.2605 29.8729 86.9774 29.7144 86.632 29.5955C86.2923 29.4709 85.9413 29.3549 85.5789 29.2473C84.9562 29.0661 84.4155 28.8821 83.9569 28.6953C83.5039 28.5028 83.1529 28.2593 82.9038 27.9649C82.6547 27.6705 82.5301 27.2827 82.5301 26.8014C82.5301 26.3032 82.6745 25.8701 82.9632 25.5021C83.252 25.134 83.6313 24.851 84.1012 24.6528C84.5712 24.449 85.075 24.3471 85.6129 24.3471C86.3093 24.3471 86.9406 24.4999 87.5068 24.8057C88.0786 25.1114 88.4806 25.5134 88.7127 26.0116L87.9654 26.4532C87.8521 26.1928 87.6738 25.9692 87.4303 25.7823C87.1869 25.5955 86.9095 25.4511 86.5981 25.3492C86.2867 25.2473 85.9724 25.1935 85.6554 25.1878C85.2591 25.1822 84.8882 25.2444 84.5428 25.3747C84.2031 25.4992 83.9285 25.6832 83.7191 25.9267C83.5096 26.1645 83.4048 26.4532 83.4048 26.7929C83.4048 27.1326 83.5011 27.3931 83.6936 27.5743C83.8861 27.7554 84.155 27.9026 84.5004 28.0159C84.8457 28.1234 85.2449 28.2508 85.6978 28.398C86.2244 28.5622 86.7141 28.7462 87.1671 28.9501C87.6257 29.1482 87.9937 29.3973 88.2711 29.6974C88.5542 29.9975 88.6929 30.3853 88.6872 30.8609C88.6872 31.3591 88.5372 31.7922 88.2371 32.1603C87.9427 32.5283 87.5549 32.8114 87.0736 33.0095C86.5981 33.2077 86.0885 33.3011 85.545 33.2898ZM97.0916 31.1327L97.9069 31.5743C97.5219 32.1121 97.0321 32.5424 96.4377 32.8651C95.8488 33.1879 95.2091 33.3492 94.5183 33.3492C93.737 33.3492 93.0236 33.1482 92.3782 32.7463C91.7384 32.3443 91.226 31.8064 90.841 31.1327C90.4617 30.4532 90.272 29.7031 90.272 28.8821C90.272 28.2593 90.3824 27.679 90.6032 27.1411C90.8241 26.5976 91.127 26.122 91.512 25.7144C91.9026 25.3011 92.3556 24.9783 92.8708 24.7462C93.386 24.5141 93.9352 24.398 94.5183 24.398C95.2091 24.398 95.8488 24.5594 96.4377 24.8821C97.0321 25.2048 97.5219 25.6379 97.9069 26.1815L97.0916 26.6146C96.7689 26.1956 96.3782 25.8757 95.9196 25.6549C95.461 25.4285 94.9939 25.3152 94.5183 25.3152C93.8955 25.3152 93.3322 25.4794 92.8283 25.8078C92.3244 26.1305 91.9253 26.5636 91.6309 27.1072C91.3364 27.645 91.1892 28.2367 91.1892 28.8821C91.1892 29.5332 91.3393 30.1277 91.6393 30.6656C91.9394 31.2034 92.3414 31.6337 92.8453 31.9564C93.3492 32.2735 93.9069 32.432 94.5183 32.432C95.0336 32.432 95.5176 32.3103 95.9706 32.0668C96.4235 31.8234 96.7972 31.512 97.0916 31.1327ZM107.212 24.6358H108.13V33.1284H107.212L107.187 31.3874C106.898 31.9763 106.485 32.4518 105.947 32.8142C105.415 33.1709 104.775 33.3492 104.028 33.3492C103.411 33.3492 102.83 33.2332 102.287 33.001C101.749 32.7632 101.273 32.4405 100.86 32.0329C100.447 31.6196 100.124 31.144 99.8918 30.6061C99.6596 30.0626 99.5436 29.4794 99.5436 28.8566C99.5436 28.2395 99.6568 27.662 99.8833 27.1241C100.115 26.5863 100.435 26.1135 100.843 25.7059C101.251 25.2926 101.723 24.9727 102.261 24.7462C102.799 24.5141 103.374 24.398 103.985 24.398C104.738 24.398 105.389 24.582 105.939 24.95C106.493 25.3124 106.926 25.788 107.238 26.3768L107.212 24.6358ZM104.019 32.449C104.67 32.449 105.228 32.2905 105.692 31.9734C106.162 31.6507 106.522 31.2176 106.771 30.6741C107.02 30.1305 107.144 29.5332 107.144 28.8821C107.144 28.214 107.017 27.6111 106.762 27.0732C106.513 26.5297 106.154 26.0994 105.684 25.7823C105.219 25.4596 104.665 25.2982 104.019 25.2982C103.362 25.2982 102.765 25.4596 102.227 25.7823C101.695 26.105 101.27 26.5382 100.953 27.0817C100.636 27.6252 100.478 28.2254 100.478 28.8821C100.478 29.5502 100.639 30.1532 100.962 30.691C101.29 31.2289 101.723 31.6564 102.261 31.9734C102.799 32.2905 103.385 32.449 104.019 32.449ZM110.502 33.1284V24.6358H111.42V25.9352C111.725 25.4653 112.13 25.0916 112.634 24.8142C113.138 24.5367 113.687 24.398 114.282 24.398C114.616 24.398 114.935 24.4405 115.241 24.5254L114.859 25.4256C114.616 25.3577 114.378 25.3237 114.146 25.3237C113.647 25.3237 113.192 25.4454 112.778 25.6889C112.365 25.9324 112.034 26.2607 111.785 26.674C111.541 27.0873 111.42 27.5459 111.42 28.0498V33.1284H110.502Z" fill="white" fill-opacity="0.4"/>
<path d="M383.962 21.9231C385.045 21.9231 385.923 21.0449 385.923 19.9615C385.923 18.8782 385.045 18 383.962 18C382.878 18 382 18.8782 382 19.9615C382 21.0449 382.878 21.9231 383.962 21.9231Z" stroke="white" stroke-width="1.7" stroke-linecap="round" stroke-linejoin="round"/>
<path d="M385.923 19.9614H399" stroke="white" stroke-width="1.7" stroke-linecap="round" stroke-linejoin="round"/>
<path d="M390.5 28.4617C391.583 28.4617 392.462 27.5834 392.462 26.5001C392.462 25.4168 391.583 24.5386 390.5 24.5386C389.417 24.5386 388.539 25.4168 388.539 26.5001C388.539 27.5834 389.417 28.4617 390.5 28.4617Z" stroke="white" stroke-width="1.7" stroke-linecap="round" stroke-linejoin="round"/>
<path d="M382 26.5H388.538M392.462 26.5H399" stroke="white" stroke-width="1.7" stroke-linecap="round" stroke-linejoin="round"/>
<path d="M397.038 35C398.122 35 399 34.1218 399 33.0384C399 31.9551 398.122 31.0769 397.038 31.0769C395.955 31.0769 395.077 31.9551 395.077 33.0384C395.077 34.1218 395.955 35 397.038 35Z" stroke="white" stroke-width="1.7" stroke-linecap="round" stroke-linejoin="round"/>
<path d="M395.077 33.0386H382" stroke="white" stroke-width="1.7" stroke-linecap="round" stroke-linejoin="round"/>
</svg>
